<svg version="1.1" viewBox="0.0 0.0 1209.1312335958005 679.8923884514436" fill="none" stroke="none" stroke-linecap="square" stroke-miterlimit="10" xmlns:xlink="http://www.w3.org/1999/xlink" xmlns="http://www.w3.org/2000/svg"><clipPath id="p.0"><path d="m0 0l1209.1312 0l0 679.8924l-1209.1312 0l0 -679.8924z" clip-rule="nonzero"/></clipPath><g clip-path="url(#p.0)"><path fill="#000000" fill-opacity="0.0" d="m0 0l1209.1312 0l0 679.8924l-1209.1312 0z" fill-rule="evenodd"/><path fill="#6d9eeb" d="m331.97113 161.84023l0 0c0 -9.193329 7.452667 -16.645996 16.645996 -16.645996l311.11743 0c4.414795 0 8.648804 1.7537689 11.770508 4.8755035c3.1217651 3.1217194 4.8754883 7.3556976 4.8754883 11.770493l0 66.582016c0 9.193329 -7.4526367 16.645996 -16.645996 16.645996l-311.11743 0c-9.193329 0 -16.645996 -7.452667 -16.645996 -16.645996z" fill-rule="evenodd"/><path fill="#000000" fill-opacity="0.0" d="m331.97113 164.6273l344.40942 0l0 61.007874l-344.40942 0z" fill-rule="evenodd"/><path fill="#ffffff" d="m412.88876 191.5473l0 -12.4375l5.546875 0q1.578125 0 2.53125 0.875q0.953125 0.859375 0.953125 2.296875q0 1.09375 -0.609375 1.859375q-0.609375 0.765625 -1.578125 0.984375q1.0 0.15625 1.71875 1.046875q0.71875 0.890625 0.71875 2.015625q0 1.53125 -0.96875 2.453125q-0.953125 0.90625 -2.640625 0.90625l-5.671875 0zm5.28125 -7.046875q1.0625 0 1.59375 -0.5625q0.546875 -0.578125 0.546875 -1.4375q0 -0.84375 -0.546875 -1.421875q-0.53125 -0.59375 -1.59375 -0.59375l-3.734375 0l0 4.015625l3.734375 0zm0.078125 5.671875q1.09375 0 1.703125 -0.5625q0.609375 -0.578125 0.609375 -1.59375q0 -0.953125 -0.640625 -1.546875q-0.625 -0.59375 -1.671875 -0.59375l-3.8125 0l0 4.296875l3.8125 0zm11.953522 1.375l0 -1.03125q-1.140625 1.25 -2.984375 1.25q-1.359375 0 -2.265625 -0.859375q-0.890625 -0.859375 -0.890625 -2.125q0 -1.296875 0.890625 -2.125q0.890625 -0.84375 2.265625 -0.84375q1.9375 0 2.984375 1.234375l0 -1.625q0 -0.90625 -0.640625 -1.390625q-0.640625 -0.5 -1.640625 -0.5q-1.578125 0 -2.75 1.25l-0.65625 -0.984375q1.4375 -1.484375 3.59375 -1.484375q1.671875 0 2.578125 0.8125q0.921875 0.796875 0.921875 2.234375l0 6.1875l-1.40625 0zm-2.484375 -0.78125q1.671875 0 2.484375 -1.125l0 -1.6875q-0.8125 -1.125 -2.484375 -1.125q-0.984375 0 -1.609375 0.546875q-0.609375 0.546875 -0.609375 1.421875q0 0.859375 0.609375 1.421875q0.625 0.546875 1.609375 0.546875zm9.534973 1.0q-2.296875 0 -3.640625 -1.40625l0.734375 -1.015625q0.453125 0.53125 1.234375 0.90625q0.796875 0.375 1.734375 0.375q1.046875 0 1.578125 -0.4375q0.546875 -0.4375 0.546875 -1.109375q0 -0.59375 -0.59375 -0.9375q-0.578125 -0.34375 -2.1875 -0.71875q-1.359375 -0.28125 -2.078125 -0.875q-0.71875 -0.609375 -0.71875 -1.640625q0 -1.140625 0.90625 -1.859375q0.921875 -0.734375 2.453125 -0.734375q2.03125 0 3.34375 1.3125l-0.65625 0.96875q-0.40625 -0.484375 -1.109375 -0.8125q-0.703125 -0.328125 -1.578125 -0.328125q-0.9375 0 -1.46875 0.40625q-0.53125 0.40625 -0.53125 1.015625q0 0.53125 0.59375 0.859375q0.609375 0.3125 2.203125 0.640625q1.359375 0.328125 2.0625 0.96875q0.71875 0.640625 0.71875 1.703125q0 1.25 -0.96875 1.984375q-0.96875 0.734375 -2.578125 0.734375zm9.893921 0q-2.03125 0 -3.3125 -1.3125q-1.28125 -1.328125 -1.28125 -3.421875q0 -2.0 1.265625 -3.359375q1.28125 -1.359375 3.171875 -1.359375q1.9375 0 3.125 1.34375q1.203125 1.34375 1.203125 3.484375l0 0.359375l-7.296875 0q0.078125 1.375 1.0 2.25q0.921875 0.859375 2.25 0.859375q1.640625 0 2.78125 -1.140625l0.671875 0.921875q-1.375 1.375 -3.578125 1.375zm2.796875 -5.296875q0 -1.25 -0.828125 -2.125q-0.8125 -0.875 -2.140625 -0.875q-1.25 0 -2.078125 0.875q-0.828125 0.875 -0.875 2.125l5.921875 0zm14.973022 5.078125l0 -1.34375q-0.5 0.6875 -1.296875 1.125q-0.78125 0.4375 -1.734375 0.4375q-1.8125 0 -2.921875 -1.28125q-1.09375 -1.28125 -1.09375 -3.4375q0 -2.15625 1.109375 -3.4375q1.109375 -1.296875 2.90625 -1.296875q0.90625 0 1.703125 0.421875q0.796875 0.421875 1.328125 1.15625l0 -4.78125l1.40625 0l0 12.4375l-1.40625 0zm-2.703125 -1.03125q0.84375 0 1.59375 -0.40625q0.75 -0.40625 1.109375 -1.0l0 -4.09375q-0.359375 -0.59375 -1.109375 -1.015625q-0.75 -0.4375 -1.59375 -0.4375q-1.296875 0 -2.09375 0.953125q-0.796875 0.953125 -0.796875 2.53125q0 1.546875 0.78125 2.515625q0.796875 0.953125 2.109375 0.953125zm10.977325 1.25q-2.03125 0 -3.3125 -1.3125q-1.28125 -1.328125 -1.28125 -3.421875q0 -2.0 1.265625 -3.359375q1.28125 -1.359375 3.171875 -1.359375q1.9375 0 3.125 1.34375q1.203125 1.34375 1.203125 3.484375l0 0.359375l-7.296875 0q0.078125 1.375 1.0 2.25q0.921875 0.859375 2.25 0.859375q1.640625 0 2.78125 -1.140625l0.671875 0.921875q-1.375 1.375 -3.578125 1.375zm2.796875 -5.296875q0 -1.25 -0.828125 -2.125q-0.8125 -0.875 -2.140625 -0.875q-1.25 0 -2.078125 0.875q-0.828125 0.875 -0.875 2.125l5.921875 0zm14.394897 5.296875q-2.734375 0 -4.5625 -1.796875q-1.828125 -1.8125 -1.828125 -4.640625q0 -2.8125 1.828125 -4.625q1.828125 -1.8125 4.5625 -1.8125q2.96875 0 4.734375 2.46875l-1.3125 0.734375q-0.546875 -0.796875 -1.453125 -1.296875q-0.90625 -0.515625 -1.96875 -0.515625q-2.0625 0 -3.421875 1.4375q-1.359375 1.4375 -1.359375 3.609375q0 2.203125 1.34375 3.640625q1.359375 1.421875 3.4375 1.421875q1.0625 0 1.96875 -0.5q0.90625 -0.515625 1.453125 -1.3125l1.328125 0.734375q-1.8125 2.453125 -4.75 2.453125zm10.596008 0q-1.953125 0 -3.203125 -1.328125q-1.25 -1.328125 -1.25 -3.40625q0 -2.09375 1.25 -3.40625q1.25 -1.3125 3.203125 -1.3125q1.96875 0 3.21875 1.3125q1.25 1.3125 1.25 3.40625q0 2.078125 -1.25 3.40625q-1.25 1.328125 -3.21875 1.328125zm0 -1.25q1.3125 0 2.15625 -0.96875q0.84375 -0.984375 0.84375 -2.515625q0 -1.515625 -0.84375 -2.484375q-0.84375 -0.984375 -2.15625 -0.984375q-1.296875 0 -2.15625 0.96875q-0.84375 0.96875 -0.84375 2.5q0 1.546875 0.84375 2.515625q0.84375 0.96875 2.15625 0.96875zm12.827606 1.03125l0 -5.890625q0 -1.203125 -0.5625 -1.640625q-0.546875 -0.453125 -1.4530945 -0.453125q-0.78125 0 -1.546875 0.421875q-0.75 0.421875 -1.125 0.984375l0 6.578125l-1.390625 0l0 -9.015625l1.390625 0l0 1.3125q0.578125 -0.671875 1.421875 -1.09375q0.859375 -0.4375 1.7812195 -0.4375q2.875 0 2.875 2.90625l0 6.328125l-1.390625 0zm8.123352 0.21875q-1.953125 0 -3.203125 -1.328125q-1.25 -1.328125 -1.25 -3.40625q0 -2.09375 1.25 -3.40625q1.25 -1.3125 3.203125 -1.3125q1.96875 0 3.21875 1.3125q1.25 1.3125 1.25 3.40625q0 2.078125 -1.25 3.40625q-1.25 1.328125 -3.21875 1.328125zm0 -1.25q1.3125 0 2.15625 -0.96875q0.84375 -0.984375 0.84375 -2.515625q0 -1.515625 -0.84375 -2.484375q-0.84375 -0.984375 -2.15625 -0.984375q-1.296875 0 -2.15625 0.96875q-0.84375 0.96875 -0.84375 2.5q0 1.546875 0.84375 2.515625q0.84375 0.96875 2.15625 0.96875zm10.718262 1.25q-1.984375 0 -3.25 -1.34375q-1.25 -1.34375 -1.25 -3.390625q0 -2.03125 1.25 -3.375q1.265625 -1.34375 3.25 -1.34375q2.09375 0 3.296875 1.5625l-0.921875 0.859375q-0.859375 -1.171875 -2.296875 -1.171875q-1.390625 0 -2.265625 0.96875q-0.859375 0.953125 -0.859375 2.5q0 1.5625 0.859375 2.53125q0.859375 0.953125 2.265625 0.953125q1.40625 0 2.296875 -1.171875l0.921875 0.859375q-1.203125 1.5625 -3.296875 1.5625zm5.9536133 -10.515625q-0.375 0 -0.65625 -0.265625q-0.28125 -0.28125 -0.28125 -0.671875q0 -0.390625 0.28125 -0.671875q0.28125 -0.28125 0.65625 -0.28125q0.390625 0 0.671875 0.28125q0.28125 0.28125 0.28125 0.671875q0 0.390625 -0.28125 0.671875q-0.28125 0.265625 -0.671875 0.265625zm-0.6875 10.296875l0 -9.015625l1.390625 0l0 9.015625l-1.390625 0zm15.072632 0l0 -6.125q0 -1.859375 -1.671875 -1.859375q-0.703125 0 -1.375 0.421875q-0.65625 0.421875 -1.0 0.953125l0 6.609375l-1.40625 0l0 -6.125q0 -1.859375 -1.65625 -1.859375q-0.6875 0 -1.34375 0.4375q-0.65625 0.421875 -1.03125 0.96875l0 6.578125l-1.390625 0l0 -9.015625l1.390625 0l0 1.3125q0.3125 -0.546875 1.1875 -1.03125q0.890625 -0.5 1.71875 -0.5q1.046875 0 1.625 0.484375q0.59375 0.484375 0.8125 1.1875q0.453125 -0.71875 1.3125 -1.1875q0.859375 -0.484375 1.703125 -0.484375q2.515625 0 2.515625 2.71875l0 6.515625l-1.390625 0zm4.88678 -10.296875q-0.375 0 -0.65625 -0.265625q-0.28125 -0.28125 -0.28125 -0.671875q0 -0.390625 0.28125 -0.671875q0.28125 -0.28125 0.65625 -0.28125q0.390625 0 0.671875 0.28125q0.28125 0.28125 0.28125 0.671875q0 0.390625 -0.28125 0.671875q-0.28125 0.265625 -0.671875 0.265625zm-0.6875 10.296875l0 -9.015625l1.390625 0l0 9.015625l-1.390625 0zm8.260132 0.21875q-2.03125 0 -3.3125 -1.3125q-1.28125 -1.328125 -1.28125 -3.421875q0 -2.0 1.265625 -3.359375q1.28125 -1.359375 3.171875 -1.359375q1.9375 0 3.125 1.34375q1.203125 1.34375 1.203125 3.484375l0 0.359375l-7.296875 0q0.078125 1.375 1.0 2.25q0.921875 0.859375 2.25 0.859375q1.640625 0 2.78125 -1.140625l0.671875 0.921875q-1.375 1.375 -3.578125 1.375zm2.796875 -5.296875q0 -1.25 -0.828125 -2.125q-0.8125 -0.875 -2.140625 -0.875q-1.25 0 -2.078125 0.875q-0.828125 0.875 -0.875 2.125l5.921875 0zm9.722229 5.078125l0 -5.890625q0 -1.203125 -0.5625 -1.640625q-0.546875 -0.453125 -1.453125 -0.453125q-0.78125 0 -1.546875 0.421875q-0.75 0.421875 -1.125 0.984375l0 6.578125l-1.390625 0l0 -9.015625l1.390625 0l0 1.3125q0.578125 -0.671875 1.421875 -1.09375q0.859375 -0.4375 1.78125 -0.4375q2.875 0 2.875 2.90625l0 6.328125l-1.390625 0zm6.467102 0.21875q-2.0 0 -2.0 -2.109375l0 -5.890625l-1.484375 0l0 -1.234375l1.484375 0l0 -2.453125l1.40625 0l0 2.453125l1.828125 0l0 1.234375l-1.828125 0l0 5.59375q0 0.515625 0.21875 0.84375q0.234375 0.3125 0.703125 0.3125q0.578125 0 0.9375 -0.375l0.421875 1.046875q-0.578125 0.578125 -1.6875 0.578125zm7.1411743 0q-1.953125 0 -3.203125 -1.328125q-1.25 -1.328125 -1.25 -3.40625q0 -2.09375 1.25 -3.40625q1.25 -1.3125 3.203125 -1.3125q1.96875 0 3.21875 1.3125q1.25 1.3125 1.25 3.40625q0 2.078125 -1.25 3.40625q-1.25 1.328125 -3.21875 1.328125zm0 -1.25q1.3125 0 2.15625 -0.96875q0.84375 -0.984375 0.84375 -2.515625q0 -1.515625 -0.84375 -2.484375q-0.84375 -0.984375 -2.15625 -0.984375q-1.296875 0 -2.15625 0.96875q-0.84375 0.96875 -0.84375 2.5q0 1.546875 0.84375 2.515625q0.84375 0.96875 2.15625 0.96875z" fill-rule="nonzero"/><path fill="#ffffff" d="m433.9741 217.26605q-1.265625 -1.734375 -1.953125 -3.859375q-0.671875 -2.140625 -0.671875 -4.390625q0 -2.265625 0.671875 -4.375q0.6875 -2.125 1.953125 -3.875l0.84375 0.640625q-1.125 2.234375 -1.546875 3.90625q-0.40625 1.671875 -0.40625 3.703125q0 2.015625 0.421875 3.71875q0.421875 1.6875 1.53125 3.875l-0.84375 0.65625zm10.142395 -3.71875l-4.71875 -5.59375l-1.25 1.421875l0 4.171875l-1.546875 0l0 -12.4375l1.546875 0l0 6.4375l5.5 -6.4375l1.953125 0l-5.1875 5.90625l5.625 6.53125l-1.921875 0zm9.728027 0l0 -5.890625q0 -1.203125 -0.5625 -1.640625q-0.546875 -0.453125 -1.453125 -0.453125q-0.78125 0 -1.546875 0.421875q-0.75 0.421875 -1.125 0.984375l0 6.578125l-1.390625 0l0 -9.015625l1.390625 0l0 1.3125q0.578125 -0.671875 1.421875 -1.09375q0.859375 -0.4375 1.78125 -0.4375q2.875 0 2.875 2.90625l0 6.328125l-1.390625 0zm8.123352 0.21875q-1.953125 0 -3.203125 -1.328125q-1.25 -1.328125 -1.25 -3.40625q0 -2.09375 1.25 -3.40625q1.25 -1.3125 3.203125 -1.3125q1.96875 0 3.21875 1.3125q1.25 1.3125 1.25 3.40625q0 2.078125 -1.25 3.40625q-1.25 1.328125 -3.21875 1.328125zm0 -1.25q1.3125 0 2.15625 -0.96875q0.84375 -0.984375 0.84375 -2.515625q0 -1.515625 -0.84375 -2.484375q-0.84375 -0.984375 -2.15625 -0.984375q-1.296875 0 -2.15625 0.96875q-0.84375 0.96875 -0.84375 2.5q0 1.546875 0.84375 2.515625q0.84375 0.96875 2.15625 0.96875zm14.546356 1.03125l-2.359375 -7.234375l-2.34375 7.234375l-1.40625 0l-2.875 -9.015625l1.453125 0l2.203125 7.1875l2.375 -7.1875l1.1875 0l2.375 7.1875l2.203125 -7.1875l1.453125 0l-2.875 9.015625l-1.390625 0zm5.89682 0l0 -12.4375l1.390625 0l0 12.4375l-1.390625 0zm8.260162 0.21875q-2.03125 0 -3.3125 -1.3125q-1.28125 -1.328125 -1.28125 -3.421875q0 -2.0 1.265625 -3.359375q1.28125 -1.359375 3.171875 -1.359375q1.9375 0 3.125 1.34375q1.203125 1.34375 1.203125 3.484375l0 0.359375l-7.296875 0q0.078125 1.375 1.0 2.25q0.921875 0.859375 2.25 0.859375q1.640625 0 2.78125 -1.140625l0.671875 0.921875q-1.375 1.375 -3.578125 1.375zm2.796875 -5.296875q0 -1.25 -0.828125 -2.125q-0.8125 -0.875 -2.140625 -0.875q-1.25 0 -2.078125 0.875q-0.828125 0.875 -0.875 2.125l5.921875 0zm10.159729 5.078125l0 -1.34375q-0.5 0.6875 -1.296875 1.125q-0.78125 0.4375 -1.734375 0.4375q-1.8125 0 -2.921875 -1.28125q-1.09375 -1.28125 -1.09375 -3.4375q0 -2.15625 1.109375 -3.4375q1.109375 -1.296875 2.90625 -1.296875q0.90625 0 1.703125 0.421875q0.796875 0.421875 1.328125 1.15625l0 -4.78125l1.40625 0l0 12.4375l-1.40625 0zm-2.703125 -1.03125q0.84375 0 1.59375 -0.40625q0.75 -0.40625 1.109375 -1.0l0 -4.09375q-0.359375 -0.59375 -1.109375 -1.015625q-0.75 -0.4375 -1.59375 -0.4375q-1.296875 0 -2.09375 0.953125q-0.796875 0.953125 -0.796875 2.53125q0 1.546875 0.78125 2.515625q0.796875 0.953125 2.109375 0.953125zm10.5242 4.6875q-1.15625 0 -2.0 -0.28125q-0.828125 -0.28125 -1.640625 -1.0625l0.71875 -1.046875q0.5625 0.671875 1.25 0.953125q0.703125 0.28125 1.671875 0.28125q1.3905945 0 2.1405945 -0.71875q0.75 -0.71875 0.75 -1.984375l0 -1.296875q-0.484375 0.703125 -1.28125 1.15625q-0.78125 0.453125 -1.7343445 0.453125q-1.828125 0 -2.921875 -1.28125q-1.09375 -1.296875 -1.09375 -3.375q0 -2.171875 1.109375 -3.421875q1.109375 -1.265625 2.90625 -1.265625q1.8593445 0 3.0155945 1.578125l0 -1.359375l1.40625 0l0 8.75q0 1.90625 -1.125 2.90625q-1.109375 1.015625 -3.1718445 1.015625zm0.203125 -4.78125q0.7655945 0 1.5155945 -0.40625q0.765625 -0.40625 1.171875 -1.0625l0 -3.9375q-0.40625 -0.65625 -1.171875 -1.046875q-0.765625 -0.40625 -1.5155945 -0.40625q-1.3125 0 -2.109375 0.953125q-0.78125 0.953125 -0.78125 2.484375q0 1.546875 0.796875 2.484375q0.8125 0.9375 2.09375 0.9375zm10.95871 1.34375q-2.03125 0 -3.3125 -1.3125q-1.28125 -1.328125 -1.28125 -3.421875q0 -2.0 1.265625 -3.359375q1.28125 -1.359375 3.171875 -1.359375q1.9375 0 3.125 1.34375q1.203125 1.34375 1.203125 3.484375l0 0.359375l-7.296875 0q0.078125 1.375 1.0 2.25q0.921875 0.859375 2.25 0.859375q1.640625 0 2.78125 -1.140625l0.671875 0.921875q-1.375 1.375 -3.578125 1.375zm2.796875 -5.296875q0 -1.25 -0.828125 -2.125q-0.8125 -0.875 -2.140625 -0.875q-1.25 0 -2.078125 0.875q-0.828125 0.875 -0.875 2.125l5.921875 0zm8.504272 5.078125l0 -12.4375l5.546875 0q1.578125 0 2.53125 0.875q0.953125 0.859375 0.953125 2.296875q0 1.09375 -0.609375 1.859375q-0.609375 0.765625 -1.578125 0.984375q1.0 0.15625 1.71875 1.046875q0.71875 0.890625 0.71875 2.015625q0 1.53125 -0.96875 2.453125q-0.953125 0.90625 -2.640625 0.90625l-5.671875 0zm5.28125 -7.046875q1.0625 0 1.59375 -0.5625q0.546875 -0.578125 0.546875 -1.4375q0 -0.84375 -0.546875 -1.421875q-0.53125 -0.59375 -1.59375 -0.59375l-3.734375 0l0 4.015625l3.734375 0zm0.078125 5.671875q1.09375 0 1.703125 -0.5625q0.609375 -0.578125 0.609375 -1.59375q0 -0.953125 -0.640625 -1.546875q-0.625 -0.59375 -1.671875 -0.59375l-3.8125 0l0 4.296875l3.8125 0zm11.953491 1.375l0 -1.03125q-1.140625 1.25 -2.984375 1.25q-1.359375 0 -2.265625 -0.859375q-0.890625 -0.859375 -0.890625 -2.125q0 -1.296875 0.890625 -2.125q0.890625 -0.84375 2.265625 -0.84375q1.9375 0 2.984375 1.234375l0 -1.625q0 -0.90625 -0.640625 -1.390625q-0.640625 -0.5 -1.640625 -0.5q-1.578125 0 -2.75 1.25l-0.65625 -0.984375q1.4375 -1.484375 3.59375 -1.484375q1.671875 0 2.578125 0.8125q0.921875 0.796875 0.921875 2.234375l0 6.1875l-1.40625 0zm-2.484375 -0.78125q1.671875 0 2.484375 -1.125l0 -1.6875q-0.8125 -1.125 -2.484375 -1.125q-0.984375 0 -1.609375 0.546875q-0.609375 0.546875 -0.609375 1.421875q0 0.859375 0.609375 1.421875q0.625 0.546875 1.609375 0.546875zm9.534973 1.0q-2.296875 0 -3.640625 -1.40625l0.734375 -1.015625q0.453125 0.53125 1.234375 0.90625q0.796875 0.375 1.734375 0.375q1.046875 0 1.578125 -0.4375q0.546875 -0.4375 0.546875 -1.109375q0 -0.59375 -0.59375 -0.9375q-0.578125 -0.34375 -2.1875 -0.71875q-1.359375 -0.28125 -2.078125 -0.875q-0.71875 -0.609375 -0.71875 -1.640625q0 -1.140625 0.90625 -1.859375q0.921875 -0.734375 2.453125 -0.734375q2.03125 0 3.34375 1.3125l-0.65625 0.96875q-0.40625 -0.484375 -1.109375 -0.8125q-0.703125 -0.328125 -1.578125 -0.328125q-0.9375 0 -1.46875 0.40625q-0.53125 0.40625 -0.53125 1.015625q0 0.53125 0.59375 0.859375q0.609375 0.3125 2.203125 0.640625q1.359375 0.328125 2.0625 0.96875q0.71875 0.640625 0.71875 1.703125q0 1.25 -0.96875 1.984375q-0.96875 0.734375 -2.578125 0.734375zm9.893921 0q-2.03125 0 -3.3125 -1.3125q-1.28125 -1.328125 -1.28125 -3.421875q0 -2.0 1.265625 -3.359375q1.28125 -1.359375 3.171875 -1.359375q1.9375 0 3.125 1.34375q1.203125 1.34375 1.203125 3.484375l0 0.359375l-7.296875 0q0.078125 1.375 1.0 2.25q0.921875 0.859375 2.25 0.859375q1.640625 0 2.78125 -1.140625l0.671875 0.921875q-1.375 1.375 -3.578125 1.375zm2.796875 -5.296875q0 -1.25 -0.828125 -2.125q-0.8125 -0.875 -2.140625 -0.875q-1.25 0 -2.078125 0.875q-0.828125 0.875 -0.875 2.125l5.921875 0zm2.550354 8.140625q1.109375 -2.171875 1.53125 -3.921875q0.4375 -1.765625 0.4375 -3.671875q0 -1.90625 -0.421875 -3.625q-0.421875 -1.734375 -1.546875 -3.984375l0.84375 -0.640625q1.28125 1.75 1.96875 3.875q0.6875 2.109375 0.6875 4.375q0 2.25 -0.6875 4.390625q-0.6875 2.125 -1.96875 3.859375l-0.84375 -0.65625z" fill-rule="nonzero"/><path fill="#6d9eeb" d="m522.2966 337.5279l0 0c0 -9.193329 7.4526978 -16.645996 16.645996 -16.645996l311.1175 0c4.414795 0 8.648743 1.7537537 11.770447 4.8754883c3.1217651 3.1217346 4.8755493 7.355713 4.8755493 11.770508l0 66.582c0 9.193329 -7.4526978 16.646027 -16.645996 16.646027l-311.1175 0c-9.193298 0 -16.645996 -7.4526978 -16.645996 -16.646027z" fill-rule="evenodd"/><path fill="#000000" fill-opacity="0.0" d="m522.2966 340.31497l344.4095 0l0 61.007874l-344.4095 0z" fill-rule="evenodd"/><path fill="#ffffff" d="m626.76495 367.23495l0 -10.25l-4.234375 10.25l-0.640625 0l-4.21875 -10.25l0 10.25l-1.546875 0l0 -12.4375l2.21875 0l3.859375 9.359375l3.890625 -9.359375l2.21875 0l0 12.4375l-1.546875 0zm8.3272705 0.21875q-1.953125 0 -3.203125 -1.328125q-1.25 -1.328125 -1.25 -3.40625q0 -2.09375 1.25 -3.40625q1.25 -1.3125 3.203125 -1.3125q1.96875 0 3.21875 1.3125q1.25 1.3125 1.25 3.40625q0 2.078125 -1.25 3.40625q-1.25 1.328125 -3.21875 1.328125zm0 -1.25q1.3125 0 2.15625 -0.96875q0.84375 -0.984375 0.84375 -2.515625q0 -1.515625 -0.84375 -2.484375q-0.84375 -0.984375 -2.15625 -0.984375q-1.296875 0 -2.15625 0.96875q-0.84375 0.96875 -0.84375 2.5q0 1.546875 0.84375 2.515625q0.84375 0.96875 2.15625 0.96875zm9.015137 1.25q-2.0 0 -2.0 -2.109375l0 -5.890625l-1.484375 0l0 -1.234375l1.484375 0l0 -2.453125l1.40625 0l0 2.453125l1.828125 0l0 1.234375l-1.828125 0l0 5.59375q0 0.515625 0.21875 0.84375q0.234375 0.3125 0.703125 0.3125q0.578125 0 0.9375 -0.375l0.421875 1.046875q-0.578125 0.578125 -1.6875 0.578125zm7.1411743 0q-1.953125 0 -3.203125 -1.328125q-1.25 -1.328125 -1.25 -3.40625q0 -2.09375 1.25 -3.40625q1.25 -1.3125 3.203125 -1.3125q1.96875 0 3.21875 1.3125q1.25 1.3125 1.25 3.40625q0 2.078125 -1.25 3.40625q-1.25 1.328125 -3.21875 1.328125zm0 -1.25q1.3125 0 2.15625 -0.96875q0.84375 -0.984375 0.84375 -2.515625q0 -1.515625 -0.84375 -2.484375q-0.84375 -0.984375 -2.15625 -0.984375q-1.296875 0 -2.15625 0.96875q-0.84375 0.96875 -0.84375 2.5q0 1.546875 0.84375 2.515625q0.84375 0.96875 2.15625 0.96875zm6.7495117 1.03125l0 -9.015625l1.390625 0l0 1.453125q1.25 -1.640625 3.0 -1.640625l0 1.4375l-0.546875 -0.046875q-0.640625 0 -1.40625 0.453125q-0.765625 0.453125 -1.046875 0.984375l0 6.375l-1.390625 0zm17.485535 0l0 -1.34375q-0.5 0.6875 -1.296875 1.125q-0.78125 0.4375 -1.734375 0.4375q-1.8125 0 -2.921875 -1.28125q-1.09375 -1.28125 -1.09375 -3.4375q0 -2.15625 1.109375 -3.4375q1.109375 -1.296875 2.90625 -1.296875q0.90625 0 1.703125 0.421875q0.796875 0.421875 1.328125 1.15625l0 -4.78125l1.40625 0l0 12.4375l-1.40625 0zm-2.703125 -1.03125q0.84375 0 1.59375 -0.40625q0.75 -0.40625 1.109375 -1.0l0 -4.09375q-0.359375 -0.59375 -1.109375 -1.015625q-0.75 -0.4375 -1.59375 -0.4375q-1.296875 0 -2.09375 0.953125q-0.796875 0.953125 -0.796875 2.53125q0 1.546875 0.78125 2.515625q0.796875 0.953125 2.109375 0.953125zm10.977295 1.25q-2.03125 0 -3.3125 -1.3125q-1.28125 -1.328125 -1.28125 -3.421875q0 -2.0 1.265625 -3.359375q1.28125 -1.359375 3.171875 -1.359375q1.9375 0 3.125 1.34375q1.203125 1.34375 1.203125 3.484375l0 0.359375l-7.296875 0q0.078125 1.375 1.0 2.25q0.921875 0.859375 2.25 0.859375q1.640625 0 2.78125 -1.140625l0.671875 0.921875q-1.375 1.375 -3.578125 1.375zm2.796875 -5.296875q0 -1.25 -0.828125 -2.125q-0.8125 -0.875 -2.140625 -0.875q-1.25 0 -2.078125 0.875q-0.828125 0.875 -0.875 2.125l5.921875 0zm8.504272 5.078125l0 -12.4375l1.546875 0l0 12.4375l-1.546875 0zm10.490112 0l0 -5.890625q0 -1.203125 -0.5625 -1.640625q-0.546875 -0.453125 -1.453125 -0.453125q-0.78125 0 -1.546875 0.421875q-0.75 0.421875 -1.125 0.984375l0 6.578125l-1.390625 0l0 -9.015625l1.390625 0l0 1.3125q0.578125 -0.671875 1.421875 -1.09375q0.859375 -0.4375 1.78125 -0.4375q2.875 0 2.875 2.90625l0 6.328125l-1.390625 0zm4.592102 0l0 -7.78125l-1.5 0l0 -1.234375l1.5 0l0 -0.6875q0 -1.390625 0.6875 -2.15625q0.703125 -0.765625 1.921875 -0.765625q1.140625 0 1.90625 0.6875l-0.578125 0.90625q-0.484375 -0.4375 -1.125 -0.4375q-1.421875 0 -1.421875 1.765625l0 0.6875l1.828125 0l0 1.234375l-1.828125 0l0 7.78125l-1.390625 0zm8.951599 0.21875q-2.03125 0 -3.3125 -1.3125q-1.28125 -1.328125 -1.28125 -3.421875q0 -2.0 1.265625 -3.359375q1.28125 -1.359375 3.171875 -1.359375q1.9375 0 3.125 1.34375q1.203125 1.34375 1.203125 3.484375l0 0.359375l-7.296875 0q0.078125 1.375 1.0 2.25q0.921875 0.859375 2.25 0.859375q1.640625 0 2.78125 -1.140625l0.671875 0.921875q-1.375 1.375 -3.578125 1.375zm2.796875 -5.296875q0 -1.25 -0.828125 -2.125q-0.8125 -0.875 -2.140625 -0.875q-1.25 0 -2.078125 0.875q-0.828125 0.875 -0.875 2.125l5.921875 0zm3.644104 5.078125l0 -9.015625l1.390625 0l0 1.453125q1.25 -1.640625 3.0 -1.640625l0 1.4375l-0.546875 -0.046875q-0.640625 0 -1.40625 0.453125q-0.765625 0.453125 -1.046875 0.984375l0 6.375l-1.390625 0zm10.219055 0.21875q-2.03125 0 -3.3125 -1.3125q-1.28125 -1.328125 -1.28125 -3.421875q0 -2.0 1.265625 -3.359375q1.28125 -1.359375 3.171875 -1.359375q1.9375 0 3.125 1.34375q1.203125 1.34375 1.203125 3.484375l0 0.359375l-7.296875 0q0.078125 1.375 1.0 2.25q0.921875 0.859375 2.25 0.859375q1.640625 0 2.78125 -1.140625l0.671875 0.921875q-1.375 1.375 -3.578125 1.375zm2.796875 -5.296875q0 -1.25 -0.828125 -2.125q-0.8125 -0.875 -2.140625 -0.875q-1.25 0 -2.078125 0.875q-0.828125 0.875 -0.875 2.125l5.921875 0zm9.722229 5.078125l0 -5.890625q0 -1.203125 -0.5625 -1.640625q-0.546875 -0.453125 -1.453125 -0.453125q-0.78125 0 -1.546875 0.421875q-0.75 0.421875 -1.125 0.984375l0 6.578125l-1.390625 0l0 -9.015625l1.390625 0l0 1.3125q0.578125 -0.671875 1.421875 -1.09375q0.859375 -0.4375 1.78125 -0.4375q2.875 0 2.875 2.90625l0 6.328125l-1.390625 0zm8.170227 0.21875q-1.984375 0 -3.25 -1.34375q-1.25 -1.34375 -1.25 -3.390625q0 -2.03125 1.25 -3.375q1.265625 -1.34375 3.25 -1.34375q2.09375 0 3.296875 1.5625l-0.921875 0.859375q-0.859375 -1.171875 -2.296875 -1.171875q-1.390625 0 -2.265625 0.96875q-0.859375 0.953125 -0.859375 2.5q0 1.5625 0.859375 2.53125q0.859375 0.953125 2.265625 0.953125q1.40625 0 2.296875 -1.171875l0.921875 0.859375q-1.203125 1.5625 -3.296875 1.5625zm5.9536133 -10.515625q-0.375 0 -0.65625 -0.265625q-0.28125 -0.28125 -0.28125 -0.671875q0 -0.390625 0.28125 -0.671875q0.28125 -0.28125 0.65625 -0.28125q0.390625 0 0.671875 0.28125q0.28125 0.28125 0.28125 0.671875q0 0.390625 -0.28125 0.671875q-0.28125 0.265625 -0.671875 0.265625zm-0.6875 10.296875l0 -9.015625l1.390625 0l0 9.015625l-1.390625 0zm9.822632 0l0 -1.03125q-1.140625 1.25 -2.984375 1.25q-1.359375 0 -2.265625 -0.859375q-0.890625 -0.859375 -0.890625 -2.125q0 -1.296875 0.890625 -2.125q0.890625 -0.84375 2.265625 -0.84375q1.9375 0 2.984375 1.234375l0 -1.625q0 -0.90625 -0.640625 -1.390625q-0.640625 -0.5 -1.640625 -0.5q-1.578125 0 -2.75 1.25l-0.65625 -0.984375q1.4375 -1.484375 3.59375 -1.484375q1.671875 0 2.578125 0.8125q0.921875 0.796875 0.921875 2.234375l0 6.1875l-1.40625 0zm-2.484375 -0.78125q1.671875 0 2.484375 -1.125l0 -1.6875q-0.8125 -1.125 -2.484375 -1.125q-0.984375 0 -1.609375 0.546875q-0.609375 0.546875 -0.609375 1.421875q0 0.859375 0.609375 1.421875q0.625 0.546875 1.609375 0.546875z" fill-rule="nonzero"/><path fill="#ffffff" d="m624.02905 392.9537q-1.265625 -1.734375 -1.953125 -3.859375q-0.671875 -2.140625 -0.671875 -4.390625q0 -2.265625 0.671875 -4.375q0.6875 -2.125 1.953125 -3.875l0.84375 0.640625q-1.125 2.234375 -1.546875 3.90625q-0.40625 1.671875 -0.40625 3.703125q0 2.015625 0.421875 3.71875q0.421875 1.6875 1.53125 3.875l-0.84375 0.65625zm2.626709 -3.71875l0 -12.4375l1.546875 0l0 12.4375l-1.546875 0zm10.490112 0l0 -5.890625q0 -1.203125 -0.5625 -1.640625q-0.546875 -0.453125 -1.453125 -0.453125q-0.78125 0 -1.546875 0.421875q-0.75 0.421875 -1.125 0.984375l0 6.578125l-1.390625 0l0 -9.015625l1.390625 0l0 1.3125q0.578125 -0.671875 1.421875 -1.09375q0.859375 -0.4375 1.78125 -0.4375q2.875 0 2.875 2.90625l0 6.328125l-1.390625 0zm4.592102 0l0 -7.78125l-1.5 0l0 -1.234375l1.5 0l0 -0.6875q0 -1.390625 0.6875 -2.15625q0.703125 -0.765625 1.921875 -0.765625q1.140625 0 1.90625 0.6875l-0.578125 0.90625q-0.484375 -0.4375 -1.125 -0.4375q-1.421875 0 -1.421875 1.765625l0 0.6875l1.828125 0l0 1.234375l-1.828125 0l0 7.78125l-1.390625 0zm8.951599 0.21875q-2.03125 0 -3.3125 -1.3125q-1.28125 -1.328125 -1.28125 -3.421875q0 -2.0 1.265625 -3.359375q1.28125 -1.359375 3.171875 -1.359375q1.9375 0 3.125 1.34375q1.203125 1.34375 1.203125 3.484375l0 0.359375l-7.296875 0q0.078125 1.375 1.0 2.25q0.921875 0.859375 2.25 0.859375q1.640625 0 2.78125 -1.140625l0.671875 0.921875q-1.375 1.375 -3.578125 1.375zm2.796875 -5.296875q0 -1.25 -0.828125 -2.125q-0.8125 -0.875 -2.140625 -0.875q-1.25 0 -2.078125 0.875q-0.828125 0.875 -0.875 2.125l5.921875 0zm3.644104 5.078125l0 -9.015625l1.390625 0l0 1.453125q1.25 -1.640625 3.0 -1.640625l0 1.4375l-0.546875 -0.046875q-0.640625 0 -1.40625 0.453125q-0.765625 0.453125 -1.046875 0.984375l0 6.375l-1.390625 0zm10.219055 0.21875q-2.03125 0 -3.3125 -1.3125q-1.28125 -1.328125 -1.28125 -3.421875q0 -2.0 1.265625 -3.359375q1.28125 -1.359375 3.171875 -1.359375q1.9375 0 3.125 1.34375q1.203125 1.34375 1.203125 3.484375l0 0.359375l-7.296875 0q0.078125 1.375 1.0 2.25q0.921875 0.859375 2.25 0.859375q1.640625 0 2.78125 -1.140625l0.671875 0.921875q-1.375 1.375 -3.578125 1.375zm2.796875 -5.296875q0 -1.25 -0.828125 -2.125q-0.8125 -0.875 -2.140625 -0.875q-1.25 0 -2.078125 0.875q-0.828125 0.875 -0.875 2.125l5.921875 0zm9.722229 5.078125l0 -5.890625q0 -1.203125 -0.5625 -1.640625q-0.546875 -0.453125 -1.453125 -0.453125q-0.78125 0 -1.546875 0.421875q-0.75 0.421875 -1.125 0.984375l0 6.578125l-1.390625 0l0 -9.015625l1.390625 0l0 1.3125q0.578125 -0.671875 1.421875 -1.09375q0.859375 -0.4375 1.78125 -0.4375q2.875 0 2.875 2.90625l0 6.328125l-1.390625 0zm8.170227 0.21875q-1.984375 0 -3.25 -1.34375q-1.25 -1.34375 -1.25 -3.390625q0 -2.03125 1.25 -3.375q1.265625 -1.34375 3.25 -1.34375q2.09375 0 3.296875 1.5625l-0.921875 0.859375q-0.859375 -1.171875 -2.296875 -1.171875q-1.390625 0 -2.265625 0.96875q-0.859375 0.953125 -0.859375 2.5q0 1.5625 0.859375 2.53125q0.859375 0.953125 2.265625 0.953125q1.40625 0 2.296875 -1.171875l0.921875 0.859375q-1.203125 1.5625 -3.296875 1.5625zm9.328613 0q-2.03125 0 -3.3125 -1.3125q-1.28125 -1.328125 -1.28125 -3.421875q0 -2.0 1.265625 -3.359375q1.28125 -1.359375 3.171875 -1.359375q1.9375 0 3.125 1.34375q1.203125 1.34375 1.203125 3.484375l0 0.359375l-7.296875 0q0.078125 1.375 1.0 2.25q0.921875 0.859375 2.25 0.859375q1.640625 0 2.78125 -1.140625l0.671875 0.921875q-1.375 1.375 -3.578125 1.375zm2.796875 -5.296875q0 -1.25 -0.828125 -2.125q-0.8125 -0.875 -2.140625 -0.875q-1.25 0 -2.078125 0.875q-0.828125 0.875 -0.875 2.125l5.921875 0zm8.504272 5.078125l0 -12.4375l8.15625 0l0 1.375l-6.609375 0l0 4.015625l6.484375 0l0 1.375l-6.484375 0l0 4.296875l6.609375 0l0 1.375l-8.15625 0zm16.646606 0l0 -5.890625q0 -1.203125 -0.5625 -1.640625q-0.546875 -0.453125 -1.453125 -0.453125q-0.78125 0 -1.546875 0.421875q-0.75 0.421875 -1.125 0.984375l0 6.578125l-1.390625 0l0 -9.015625l1.390625 0l0 1.3125q0.578125 -0.671875 1.421875 -1.09375q0.859375 -0.4375 1.78125 -0.4375q2.875 0 2.875 2.90625l0 6.328125l-1.390625 0zm7.810852 3.65625q-1.15625 0 -2.0 -0.28125q-0.828125 -0.28125 -1.640625 -1.0625l0.71875 -1.046875q0.5625 0.671875 1.25 0.953125q0.703125 0.28125 1.671875 0.28125q1.390625 0 2.140625 -0.71875q0.75 -0.71875 0.75 -1.984375l0 -1.296875q-0.484375 0.703125 -1.28125 1.15625q-0.78125 0.453125 -1.734375 0.453125q-1.828125 0 -2.921875 -1.28125q-1.09375 -1.296875 -1.09375 -3.375q0 -2.171875 1.109375 -3.421875q1.109375 -1.265625 2.90625 -1.265625q1.859375 0 3.015625 1.578125l0 -1.359375l1.40625 0l0 8.75q0 1.90625 -1.125 2.90625q-1.109375 1.015625 -3.171875 1.015625zm0.203125 -4.78125q0.765625 0 1.515625 -0.40625q0.765625 -0.40625 1.171875 -1.0625l0 -3.9375q-0.40625 -0.65625 -1.171875 -1.046875q-0.765625 -0.40625 -1.515625 -0.40625q-1.3125 0 -2.109375 0.953125q-0.78125 0.953125 -0.78125 2.484375q0 1.546875 0.796875 2.484375q0.8125 0.9375 2.09375 0.9375zm7.58374 -9.171875q-0.375 0 -0.65625 -0.265625q-0.28125 -0.28125 -0.28125 -0.671875q0 -0.390625 0.28125 -0.671875q0.28125 -0.28125 0.65625 -0.28125q0.390625 0 0.671875 0.28125q0.28125 0.28125 0.28125 0.671875q0 0.390625 -0.28125 0.671875q-0.28125 0.265625 -0.671875 0.265625zm-0.6875 10.296875l0 -9.015625l1.390625 0l0 9.015625l-1.390625 0zm10.275757 0l0 -5.890625q0 -1.203125 -0.5625 -1.640625q-0.546875 -0.453125 -1.453125 -0.453125q-0.78125 0 -1.546875 0.421875q-0.75 0.421875 -1.125 0.984375l0 6.578125l-1.390625 0l0 -9.015625l1.390625 0l0 1.3125q0.578125 -0.671875 1.421875 -1.09375q0.859375 -0.4375 1.78125 -0.4375q2.875 0 2.875 2.90625l0 6.328125l-1.390625 0zm8.263977 0.21875q-2.03125 0 -3.3125 -1.3125q-1.28125 -1.328125 -1.28125 -3.421875q0 -2.0 1.265625 -3.359375q1.28125 -1.359375 3.171875 -1.359375q1.9375 0 3.125 1.34375q1.203125 1.34375 1.203125 3.484375l0 0.359375l-7.296875 0q0.078125 1.375 1.0 2.25q0.921875 0.859375 2.25 0.859375q1.640625 0 2.78125 -1.140625l0.671875 0.921875q-1.375 1.375 -3.578125 1.375zm2.796875 -5.296875q0 -1.25 -0.828125 -2.125q-0.8125 -0.875 -2.140625 -0.875q-1.25 0 -2.078125 0.875q-0.828125 0.875 -0.875 2.125l5.921875 0zm2.550354 8.140625q1.109375 -2.171875 1.53125 -3.921875q0.4375 -1.765625 0.4375 -3.671875q0 -1.90625 -0.421875 -3.625q-0.421875 -1.734375 -1.546875 -3.984375l0.84375 -0.640625q1.28125 1.75 1.96875 3.875q0.6875 2.109375 0.6875 4.375q0 2.25 -0.6875 4.390625q-0.6875 2.125 -1.96875 3.859375l-0.84375 -0.65625z" fill-rule="nonzero"/><path fill="#6d9eeb" d="m719.3228 161.84023l0 0c0 -9.193329 7.4526978 -16.645996 16.645996 -16.645996l311.1175 0c4.414795 0 8.648804 1.7537689 11.770508 4.8755035c3.121704 3.1217194 4.8754883 7.3556976 4.8754883 11.770493l0 66.582016c0 9.193329 -7.4526367 16.645996 -16.645996 16.645996l-311.1175 0c-9.193298 0 -16.645996 -7.452667 -16.645996 -16.645996z" fill-rule="evenodd"/><path fill="#000000" fill-opacity="0.0" d="m719.3228 164.6273l344.4095 0l0 61.007874l-344.4095 0z" fill-rule="evenodd"/><path fill="#ffffff" d="m822.19653 191.5473l0 -10.25l-4.234375 10.25l-0.640625 0l-4.21875 -10.25l0 10.25l-1.546875 0l0 -12.4375l2.21875 0l3.859375 9.359375l3.890625 -9.359375l2.21875 0l0 12.4375l-1.546875 0zm8.4678955 0.21875q-2.03125 0 -3.3125 -1.3125q-1.28125 -1.328125 -1.28125 -3.421875q0 -2.0 1.265625 -3.359375q1.28125 -1.359375 3.171875 -1.359375q1.9375 0 3.125 1.34375q1.203125 1.34375 1.203125 3.484375l0 0.359375l-7.296875 0q0.078125 1.375 1.0 2.25q0.921875 0.859375 2.25 0.859375q1.640625 0 2.78125 -1.140625l0.671875 0.921875q-1.375 1.375 -3.578125 1.375zm2.796875 -5.296875q0 -1.25 -0.828125 -2.125q-0.8125 -0.875 -2.140625 -0.875q-1.25 0 -2.078125 0.875q-0.828125 0.875 -0.875 2.125l5.921875 0zm14.519104 5.078125l0 -6.125q0 -1.859375 -1.671875 -1.859375q-0.703125 0 -1.375 0.421875q-0.65625 0.421875 -1.0 0.953125l0 6.609375l-1.40625 0l0 -6.125q0 -1.859375 -1.65625 -1.859375q-0.6875 0 -1.34375 0.4375q-0.65625 0.421875 -1.03125 0.96875l0 6.578125l-1.390625 0l0 -9.015625l1.390625 0l0 1.3125q0.3125 -0.546875 1.1875 -1.03125q0.890625 -0.5 1.71875 -0.5q1.046875 0 1.625 0.484375q0.59375 0.484375 0.8125 1.1875q0.453125 -0.71875 1.3125 -1.1875q0.859375 -0.484375 1.703125 -0.484375q2.515625 0 2.515625 2.71875l0 6.515625l-1.390625 0zm8.121155 0.21875q-1.953125 0 -3.203125 -1.328125q-1.25 -1.328125 -1.25 -3.40625q0 -2.09375 1.25 -3.40625q1.25 -1.3125 3.203125 -1.3125q1.96875 0 3.21875 1.3125q1.25 1.3125 1.25 3.40625q0 2.078125 -1.25 3.40625q-1.25 1.328125 -3.21875 1.328125zm0 -1.25q1.3125 0 2.15625 -0.96875q0.84375 -0.984375 0.84375 -2.515625q0 -1.515625 -0.84375 -2.484375q-0.84375 -0.984375 -2.15625 -0.984375q-1.296875 0 -2.15625 0.96875q-0.84375 0.96875 -0.84375 2.5q0 1.546875 0.84375 2.515625q0.84375 0.96875 2.15625 0.96875zm6.7494507 1.03125l0 -9.015625l1.390625 0l0 1.453125q1.25 -1.640625 3.0 -1.640625l0 1.4375l-0.546875 -0.046875q-0.640625 0 -1.40625 0.453125q-0.765625 0.453125 -1.046875 0.984375l0 6.375l-1.390625 0zm6.844116 -10.296875q-0.375 0 -0.65625 -0.265625q-0.28125 -0.28125 -0.28125 -0.671875q0 -0.390625 0.28125 -0.671875q0.28125 -0.28125 0.65625 -0.28125q0.390625 0 0.671875 0.28125q0.28125 0.28125 0.28125 0.671875q0 0.390625 -0.28125 0.671875q-0.28125 0.265625 -0.671875 0.265625zm-0.6875 10.296875l0 -9.015625l1.390625 0l0 9.015625l-1.390625 0zm9.822632 0l0 -1.03125q-1.140625 1.25 -2.984375 1.25q-1.359375 0 -2.265625 -0.859375q-0.890625 -0.859375 -0.890625 -2.125q0 -1.296875 0.890625 -2.125q0.890625 -0.84375 2.265625 -0.84375q1.9375 0 2.984375 1.234375l0 -1.625q0 -0.90625 -0.640625 -1.390625q-0.640625 -0.5 -1.640625 -0.5q-1.578125 0 -2.75 1.25l-0.65625 -0.984375q1.4375 -1.484375 3.59375 -1.484375q1.671875 0 2.578125 0.8125q0.921875 0.796875 0.921875 2.234375l0 6.1875l-1.40625 0zm-2.484375 -0.78125q1.671875 0 2.484375 -1.125l0 -1.6875q-0.8125 -1.125 -2.484375 -1.125q-0.984375 0 -1.609375 0.546875q-0.609375 0.546875 -0.609375 1.421875q0 0.859375 0.609375 1.421875q0.625 0.546875 1.609375 0.546875zm18.020142 0.78125l0 -1.34375q-0.5 0.6875 -1.296875 1.125q-0.78125 0.4375 -1.734375 0.4375q-1.8125 0 -2.921875 -1.28125q-1.09375 -1.28125 -1.09375 -3.4375q0 -2.15625 1.109375 -3.4375q1.109375 -1.296875 2.90625 -1.296875q0.90625 0 1.703125 0.421875q0.796875 0.421875 1.328125 1.15625l0 -4.78125l1.40625 0l0 12.4375l-1.40625 0zm-2.703125 -1.03125q0.84375 0 1.59375 -0.40625q0.75 -0.40625 1.109375 -1.0l0 -4.09375q-0.359375 -0.59375 -1.109375 -1.015625q-0.75 -0.4375 -1.59375 -0.4375q-1.296875 0 -2.09375 0.953125q-0.796875 0.953125 -0.796875 2.53125q0 1.546875 0.78125 2.515625q0.796875 0.953125 2.109375 0.953125zm10.977356 1.25q-2.03125 0 -3.3125 -1.3125q-1.28125 -1.328125 -1.28125 -3.421875q0 -2.0 1.265625 -3.359375q1.28125 -1.359375 3.171875 -1.359375q1.9375 0 3.125 1.34375q1.203125 1.34375 1.203125 3.484375l0 0.359375l-7.296875 0q0.078125 1.375 1.0 2.25q0.921875 0.859375 2.25 0.859375q1.640625 0 2.78125 -1.140625l0.671875 0.921875q-1.375 1.375 -3.578125 1.375zm2.796875 -5.296875q0 -1.25 -0.828125 -2.125q-0.8125 -0.875 -2.140625 -0.875q-1.25 0 -2.078125 0.875q-0.828125 0.875 -0.875 2.125l5.921875 0zm11.582397 5.078125l0 -11.0625l-3.9375 0l0 -1.375l9.4375 0l0 1.375l-3.953125 0l0 11.0625l-1.546875 0zm5.9224243 0l0 -9.015625l1.390625 0l0 1.453125q1.25 -1.640625 3.0 -1.640625l0 1.4375l-0.546875 -0.046875q-0.640625 0 -1.40625 0.453125q-0.765625 0.453125 -1.046875 0.984375l0 6.375l-1.390625 0zm11.781555 0l0 -1.03125q-1.140625 1.25 -2.984375 1.25q-1.359375 0 -2.265625 -0.859375q-0.890625 -0.859375 -0.890625 -2.125q0 -1.296875 0.890625 -2.125q0.890625 -0.84375 2.265625 -0.84375q1.9375 0 2.984375 1.234375l0 -1.625q0 -0.90625 -0.640625 -1.390625q-0.640625 -0.5 -1.640625 -0.5q-1.578125 0 -2.75 1.25l-0.65625 -0.984375q1.4375 -1.484375 3.59375 -1.484375q1.671875 0 2.578125 0.8125q0.921875 0.796875 0.921875 2.234375l0 6.1875l-1.40625 0zm-2.484375 -0.78125q1.671875 0 2.484375 -1.125l0 -1.6875q-0.8125 -1.125 -2.484375 -1.125q-0.984375 0 -1.609375 0.546875q-0.609375 0.546875 -0.609375 1.421875q0 0.859375 0.609375 1.421875q0.625 0.546875 1.609375 0.546875zm8.081848 -1.65625q0.375 0.59375 1.109375 1.0q0.734375 0.40625 1.578125 0.40625q1.328125 0 2.109375 -0.953125q0.796875 -0.96875 0.796875 -2.515625q0 -1.5625 -0.78125 -2.515625q-0.78125 -0.96875 -2.125 -0.96875q-0.84375 0 -1.578125 0.4375q-0.734375 0.421875 -1.109375 1.015625l0 4.09375zm-1.390625 2.4375l0 -12.4375l1.390625 0l0 4.78125q1.15625 -1.578125 3.046875 -1.578125q1.78125 0 2.890625 1.3125q1.109375 1.296875 1.109375 3.421875q0 2.171875 -1.109375 3.453125q-1.109375 1.265625 -2.890625 1.265625q-0.953125 0 -1.75 -0.4375q-0.796875 -0.4375 -1.296875 -1.125l0 1.34375l-1.390625 0zm16.352356 0l0 -1.03125q-1.140625 1.25 -2.984375 1.25q-1.359375 0 -2.265625 -0.859375q-0.890625 -0.859375 -0.890625 -2.125q0 -1.296875 0.890625 -2.125q0.890625 -0.84375 2.265625 -0.84375q1.9375 0 2.984375 1.234375l0 -1.625q0 -0.90625 -0.640625 -1.390625q-0.640625 -0.5 -1.640625 -0.5q-1.578125 0 -2.75 1.25l-0.65625 -0.984375q1.4375 -1.484375 3.59375 -1.484375q1.671875 0 2.578125 0.8125q0.921875 0.796875 0.921875 2.234375l0 6.1875l-1.40625 0zm-2.484375 -0.78125q1.671875 0 2.484375 -1.125l0 -1.6875q-0.8125 -1.125 -2.484375 -1.125q-0.984375 0 -1.609375 0.546875q-0.609375 0.546875 -0.609375 1.421875q0 0.859375 0.609375 1.421875q0.625 0.546875 1.609375 0.546875zm7.378723 -9.515625q-0.375 0 -0.65625 -0.265625q-0.28125 -0.28125 -0.28125 -0.671875q0 -0.390625 0.28125 -0.671875q0.28125 -0.28125 0.65625 -0.28125q0.390625 0 0.671875 0.28125q0.28125 0.28125 0.28125 0.671875q0 0.390625 -0.28125 0.671875q-0.28125 0.265625 -0.671875 0.265625zm-1.96875 13.953125q-0.6875 0 -1.109375 -0.171875q-0.4375 -0.15625 -0.859375 -0.5l0.5 -1.0625q0.578125 0.578125 1.28125 0.578125q1.46875 0 1.46875 -1.625l0 -9.890625l1.390625 0l0 9.890625q0 1.34375 -0.6875 2.0625q-0.6875 0.71875 -1.984375 0.71875zm9.400757 -3.4375q-1.953125 0 -3.203125 -1.328125q-1.25 -1.328125 -1.25 -3.40625q0 -2.09375 1.25 -3.40625q1.25 -1.3125 3.203125 -1.3125q1.96875 0 3.21875 1.3125q1.25 1.3125 1.25 3.40625q0 2.078125 -1.25 3.40625q-1.25 1.328125 -3.21875 1.328125zm0 -1.25q1.3125 0 2.15625 -0.96875q0.84375 -0.984375 0.84375 -2.515625q0 -1.515625 -0.84375 -2.484375q-0.84375 -0.984375 -2.15625 -0.984375q-1.296875 0 -2.15625 0.96875q-0.84375 0.96875 -0.84375 2.5q0 1.546875 0.84375 2.515625q0.84375 0.96875 2.15625 0.96875z" fill-rule="nonzero"/><path fill="#ffffff" d="m820.9622 217.26605q-1.265625 -1.734375 -1.953125 -3.859375q-0.671875 -2.140625 -0.671875 -4.390625q0 -2.265625 0.671875 -4.375q0.6875 -2.125 1.953125 -3.875l0.84375 0.640625q-1.125 2.234375 -1.546875 3.90625q-0.40625 1.671875 -0.40625 3.703125q0 2.015625 0.421875 3.71875q0.421875 1.6875 1.53125 3.875l-0.84375 0.65625zm12.142395 -3.71875l-2.734375 -10.03125l-2.75 10.03125l-1.671875 0l-3.546875 -12.4375l1.71875 0l2.75 10.359375l2.859375 -10.359375l1.28125 0l2.859375 10.359375l2.75 -10.359375l1.703125 0l-3.53125 12.4375l-1.6875 0zm10.086121 0.21875q-1.953125 0 -3.203125 -1.328125q-1.25 -1.328125 -1.25 -3.40625q0 -2.09375 1.25 -3.40625q1.25 -1.3125 3.203125 -1.3125q1.96875 0 3.21875 1.3125q1.25 1.3125 1.25 3.40625q0 2.078125 -1.25 3.40625q-1.25 1.328125 -3.21875 1.328125zm0 -1.25q1.3125 0 2.15625 -0.96875q0.84375 -0.984375 0.84375 -2.515625q0 -1.515625 -0.84375 -2.484375q-0.84375 -0.984375 -2.15625 -0.984375q-1.296875 0 -2.15625 0.96875q-0.84375 0.96875 -0.84375 2.5q0 1.546875 0.84375 2.515625q0.84375 0.96875 2.15625 0.96875zm6.7495117 1.03125l0 -9.015625l1.390625 0l0 1.453125q1.25 -1.640625 3.0 -1.640625l0 1.4375l-0.546875 -0.046875q-0.640625 0 -1.40625 0.453125q-0.765625 0.453125 -1.046875 0.984375l0 6.375l-1.390625 0zm12.281555 0l-3.234375 -4.046875l-1.5 1.46875l0 2.578125l-1.390625 0l0 -12.4375l1.390625 0l0 8.21875l4.734375 -4.796875l1.78125 0l-4.0 4.09375l4.015625 4.921875l-1.796875 0zm4.1518555 -10.296875q-0.375 0 -0.65625 -0.265625q-0.28125 -0.28125 -0.28125 -0.671875q0 -0.390625 0.28125 -0.671875q0.28125 -0.28125 0.65625 -0.28125q0.390625 0 0.671875 0.28125q0.28125 0.28125 0.28125 0.671875q0 0.390625 -0.28125 0.671875q-0.28125 0.265625 -0.671875 0.265625zm-0.6875 10.296875l0 -9.015625l1.390625 0l0 9.015625l-1.390625 0zm10.275757 0l0 -5.890625q0 -1.203125 -0.5625 -1.640625q-0.546875 -0.453125 -1.453125 -0.453125q-0.78125 0 -1.546875 0.421875q-0.75 0.421875 -1.125 0.984375l0 6.578125l-1.390625 0l0 -9.015625l1.390625 0l0 1.3125q0.578125 -0.671875 1.421875 -1.09375q0.859375 -0.4375 1.78125 -0.4375q2.875 0 2.875 2.90625l0 6.328125l-1.390625 0zm7.810852 3.65625q-1.15625 0 -2.0 -0.28125q-0.828125 -0.28125 -1.640625 -1.0625l0.71875 -1.046875q0.5625 0.671875 1.25 0.953125q0.703125 0.28125 1.671875 0.28125q1.390625 0 2.140625 -0.71875q0.75 -0.71875 0.75 -1.984375l0 -1.296875q-0.484375 0.703125 -1.28125 1.15625q-0.78125 0.453125 -1.734375 0.453125q-1.828125 0 -2.921875 -1.28125q-1.09375 -1.296875 -1.09375 -3.375q0 -2.171875 1.109375 -3.421875q1.109375 -1.265625 2.90625 -1.265625q1.859375 0 3.015625 1.578125l0 -1.359375l1.40625 0l0 8.75q0 1.90625 -1.125 2.90625q-1.109375 1.015625 -3.171875 1.015625zm0.203125 -4.78125q0.765625 0 1.515625 -0.40625q0.765625 -0.40625 1.171875 -1.0625l0 -3.9375q-0.40625 -0.65625 -1.171875 -1.046875q-0.765625 -0.40625 -1.515625 -0.40625q-1.3125 0 -2.109375 0.953125q-0.78125 0.953125 -0.78125 2.484375q0 1.546875 0.796875 2.484375q0.8125 0.9375 2.09375 0.9375zm22.397034 1.125l0 -10.25l-4.234375 10.25l-0.640625 0l-4.21875 -10.25l0 10.25l-1.546875 0l0 -12.4375l2.21875 0l3.859375 9.359375l3.890625 -9.359375l2.21875 0l0 12.4375l-1.546875 0zm8.4678955 0.21875q-2.03125 0 -3.3125 -1.3125q-1.28125 -1.328125 -1.28125 -3.421875q0 -2.0 1.265625 -3.359375q1.28125 -1.359375 3.171875 -1.359375q1.9375 0 3.125 1.34375q1.203125 1.34375 1.203125 3.484375l0 0.359375l-7.296875 0q0.078125 1.375 1.0 2.25q0.921875 0.859375 2.25 0.859375q1.640625 0 2.78125 -1.140625l0.671875 0.921875q-1.375 1.375 -3.578125 1.375zm2.796875 -5.296875q0 -1.25 -0.828125 -2.125q-0.8125 -0.875 -2.140625 -0.875q-1.25 0 -2.078125 0.875q-0.828125 0.875 -0.875 2.125l5.921875 0zm14.519104 5.078125l0 -6.125q0 -1.859375 -1.671875 -1.859375q-0.703125 0 -1.375 0.421875q-0.65625 0.421875 -1.0 0.953125l0 6.609375l-1.40625 0l0 -6.125q0 -1.859375 -1.65625 -1.859375q-0.6875 0 -1.34375 0.4375q-0.65625 0.421875 -1.03125 0.96875l0 6.578125l-1.390625 0l0 -9.015625l1.390625 0l0 1.3125q0.3125 -0.546875 1.1875 -1.03125q0.890625 -0.5 1.71875 -0.5q1.046875 0 1.625 0.484375q0.59375 0.484375 0.8125 1.1875q0.453125 -0.71875 1.3125 -1.1875q0.859375 -0.484375 1.703125 -0.484375q2.515625 0 2.515625 2.71875l0 6.515625l-1.390625 0zm8.121094 0.21875q-1.953125 0 -3.203125 -1.328125q-1.25 -1.328125 -1.25 -3.40625q0 -2.09375 1.25 -3.40625q1.25 -1.3125 3.203125 -1.3125q1.96875 0 3.21875 1.3125q1.25 1.3125 1.25 3.40625q0 2.078125 -1.25 3.40625q-1.25 1.328125 -3.21875 1.328125zm0 -1.25q1.3125 0 2.15625 -0.96875q0.84375 -0.984375 0.84375 -2.515625q0 -1.515625 -0.84375 -2.484375q-0.84375 -0.984375 -2.15625 -0.984375q-1.296875 0 -2.15625 0.96875q-0.84375 0.96875 -0.84375 2.5q0 1.546875 0.84375 2.515625q0.84375 0.96875 2.15625 0.96875zm6.7495117 1.03125l0 -9.015625l1.390625 0l0 1.453125q1.25 -1.640625 3.0 -1.640625l0 1.4375l-0.546875 -0.046875q-0.640625 0 -1.40625 0.453125q-0.765625 0.453125 -1.046875 0.984375l0 6.375l-1.390625 0zm5.875305 2.25q0.296875 0.15625 0.765625 0.15625q0.453125 0 0.765625 -0.203125q0.328125 -0.1875 0.578125 -0.75l0.59375 -1.359375l-3.765625 -9.109375l1.5 0l3.015625 7.390625l2.984375 -7.390625l1.515625 0l-4.5 10.84375q-0.75 1.796875 -2.65625 1.828125q-0.546875 0 -1.03125 -0.125l0.234375 -1.28125zm8.329102 0.8125q1.109375 -2.171875 1.53125 -3.921875q0.4375 -1.765625 0.4375 -3.671875q0 -1.90625 -0.421875 -3.625q-0.421875 -1.734375 -1.546875 -3.984375l0.84375 -0.640625q1.28125 1.75 1.96875 3.875q0.6875 2.109375 0.6875 4.375q0 2.25 -0.6875 4.390625q-0.6875 2.125 -1.96875 3.859375l-0.84375 -0.65625z" fill-rule="nonzero"/><path fill="#000000" fill-opacity="0.0" d="m604.65094 243.25197l0 77.16536" fill-rule="evenodd"/><path stroke="#000000" stroke-width="1.0" stroke-linejoin="round" stroke-linecap="butt" d="m604.65094 243.25197l0 71.16536" fill-rule="evenodd"/><path fill="#000000" stroke="#000000" stroke-width="1.0" stroke-linecap="butt" d="m602.9992 314.41733l1.6517334 4.538086l1.6517334 -4.538086z" fill-rule="evenodd"/><path fill="#000000" fill-opacity="0.0" d="m793.50397 246.88452l0 74.456696" fill-rule="evenodd"/><path stroke="#000000" stroke-width="1.0" stroke-linejoin="round" stroke-linecap="butt" d="m793.50397 246.88452l0 68.456696" fill-rule="evenodd"/><path fill="#000000" stroke="#000000" stroke-width="1.0" stroke-linecap="butt" d="m791.85223 315.34122l1.6517334 4.538086l1.6516724 -4.538086z" fill-rule="evenodd"/><path fill="#000000" fill-opacity="0.0" d="m825.2808 320.42783l0 -75.37009" fill-rule="evenodd"/><path stroke="#000000" stroke-width="1.0" stroke-linejoin="round" stroke-linecap="butt" d="m825.2808 320.42783l0 -69.37009" fill-rule="evenodd"/><path fill="#000000" stroke="#000000" stroke-width="1.0" stroke-linecap="butt" d="m826.93256 251.05774l-1.6517334 -4.538101l-1.6517334 4.538101z" fill-rule="evenodd"/><path fill="#b4a7d6" d="m522.2966 491.57776l0 0c0 -9.193329 7.4526978 -16.645996 16.645996 -16.645996l311.1175 0c4.414795 0 8.648743 1.7537537 11.770447 4.8754883c3.1217651 3.1217346 4.8755493 7.355713 4.8755493 11.770508l0 66.58203c0 9.193298 -7.4526978 16.645996 -16.645996 16.645996l-311.1175 0c-9.193298 0 -16.645996 -7.4526978 -16.645996 -16.645996z" fill-rule="evenodd"/><path fill="#b4a7d6" d="m522.2966 504.75854l344.4095 0l0 40.22046l-344.4095 0z" fill-rule="evenodd"/><path fill="#ffffff" d="m669.5968 531.8973q-2.40625 0 -3.75 -1.3125q-1.328125 -1.3125 -1.328125 -3.734375l0 -7.609375l1.546875 0l0 7.5625q0 1.71875 0.890625 2.71875q0.90625 1.0 2.640625 1.0q1.734375 0 2.625 -1.0q0.90625 -1.0 0.90625 -2.71875l0 -7.5625l1.546875 0l0 7.59375q0 2.421875 -1.3125 3.75q-1.296875 1.3125 -3.765625 1.3125zm10.778076 0q-2.296875 0 -3.640625 -1.40625l0.734375 -1.015625q0.453125 0.53125 1.234375 0.90625q0.796875 0.375 1.734375 0.375q1.046875 0 1.578125 -0.4375q0.546875 -0.4375 0.546875 -1.109375q0 -0.59375 -0.59375 -0.9375q-0.578125 -0.34375 -2.1875 -0.71875q-1.359375 -0.28125 -2.078125 -0.875q-0.71875 -0.609375 -0.71875 -1.640625q0 -1.140625 0.90625 -1.859375q0.921875 -0.734375 2.453125 -0.734375q2.03125 0 3.34375 1.3125l-0.65625 0.96875q-0.40625 -0.484375 -1.109375 -0.8125q-0.703125 -0.328125 -1.578125 -0.328125q-0.9375 0 -1.46875 0.40625q-0.53125 0.40625 -0.53125 1.015625q0 0.53125 0.59375 0.859375q0.609375 0.3125 2.203125 0.640625q1.359375 0.328125 2.0625 0.96875q0.71875 0.640625 0.71875 1.703125q0 1.25 -0.96875 1.984375q-0.96875 0.734375 -2.578125 0.734375zm11.909546 -0.21875l0 -1.265625q-0.53125 0.59375 -1.375 1.046875q-0.828125 0.4375 -1.84375 0.4375q-2.859375 0 -2.859375 -2.875l0 -6.359375l1.390625 0l0 5.9375q0 1.0625 0.484375 1.5625q0.484375 0.484375 1.53125 0.484375q0.828125 0 1.546875 -0.40625q0.734375 -0.40625 1.125 -0.953125l0 -6.625l1.390625 0l0 9.015625l-1.390625 0zm9.826477 0l0 -1.03125q-1.140625 1.25 -2.984375 1.25q-1.359375 0 -2.265625 -0.859375q-0.890625 -0.859375 -0.890625 -2.125q0 -1.296875 0.890625 -2.125q0.890625 -0.84375 2.265625 -0.84375q1.9375 0 2.984375 1.234375l0 -1.625q0 -0.90625 -0.640625 -1.390625q-0.640625 -0.5 -1.640625 -0.5q-1.578125 0 -2.75 1.25l-0.65625 -0.984375q1.4375 -1.484375 3.59375 -1.484375q1.671875 0 2.578125 0.8125q0.921875 0.796875 0.921875 2.234375l0 6.1875l-1.40625 0zm-2.484375 -0.78125q1.671875 0 2.484375 -1.125l0 -1.6875q-0.8125 -1.125 -2.484375 -1.125q-0.984375 0 -1.609375 0.546875q-0.609375 0.546875 -0.609375 1.421875q0 0.859375 0.609375 1.421875q0.625 0.546875 1.609375 0.546875zm6.691223 0.78125l0 -9.015625l1.390625 0l0 1.453125q1.25 -1.640625 3.0 -1.640625l0 1.4375l-0.546875 -0.046875q-0.640625 0 -1.40625 0.453125q-0.765625 0.453125 -1.046875 0.984375l0 6.375l-1.390625 0zm6.844055 -10.296875q-0.375 0 -0.65625 -0.265625q-0.28125 -0.28125 -0.28125 -0.671875q0 -0.390625 0.28125 -0.671875q0.28125 -0.28125 0.65625 -0.28125q0.390625 0 0.671875 0.28125q0.28125 0.28125 0.28125 0.671875q0 0.390625 -0.28125 0.671875q-0.28125 0.265625 -0.671875 0.265625zm-0.6875 10.296875l0 -9.015625l1.390625 0l0 9.015625l-1.390625 0zm8.119568 0.21875q-1.953125 0 -3.203125 -1.328125q-1.25 -1.328125 -1.25 -3.40625q0 -2.09375 1.25 -3.40625q1.25 -1.3125 3.203125 -1.3125q1.96875 0 3.21875 1.3125q1.25 1.3125 1.25 3.40625q0 2.078125 -1.25 3.40625q-1.25 1.328125 -3.21875 1.328125zm0 -1.25q1.3125 0 2.15625 -0.96875q0.84375 -0.984375 0.84375 -2.515625q0 -1.515625 -0.84375 -2.484375q-0.84375 -0.984375 -2.15625 -0.984375q-1.296875 0 -2.15625 0.96875q-0.84375 0.96875 -0.84375 2.5q0 1.546875 0.84375 2.515625q0.84375 0.96875 2.15625 0.96875z" fill-rule="nonzero"/><path fill="#b4a7d6" d="m148.24672 337.5279l0 0c0 -9.193329 7.452667 -16.645996 16.645996 -16.645996l311.11743 0c4.414795 0 8.648773 1.7537537 11.770508 4.8754883c3.1217346 3.1217346 4.8754883 7.355713 4.8754883 11.770508l0 66.582c0 9.193329 -7.452667 16.646027 -16.645996 16.646027l-311.11743 0c-9.193329 0 -16.645996 -7.4526978 -16.645996 -16.646027z" fill-rule="evenodd"/><path fill="#b4a7d6" d="m148.24672 350.70865l344.40942 0l0 40.22049l-344.40942 0z" fill-rule="evenodd"/><path fill="#ffffff" d="m210.65733 377.62866l0 -12.4375l1.546875 0l0 12.4375l-1.546875 0zm10.490097 0l0 -5.890625q0 -1.203125 -0.5625 -1.640625q-0.546875 -0.453125 -1.453125 -0.453125q-0.78125 0 -1.546875 0.421875q-0.75 0.421875 -1.125 0.984375l0 6.578125l-1.390625 0l0 -9.015625l1.390625 0l0 1.3125q0.578125 -0.671875 1.421875 -1.09375q0.859375 -0.4375 1.78125 -0.4375q2.875 0 2.875 2.90625l0 6.328125l-1.390625 0zm7.810852 3.65625q-1.15625 0 -2.0 -0.28125q-0.828125 -0.28125 -1.640625 -1.0625l0.71875 -1.046875q0.5625 0.671875 1.25 0.953125q0.703125 0.28125 1.671875 0.28125q1.390625 0 2.140625 -0.71875q0.75 -0.71875 0.75 -1.984375l0 -1.296875q-0.484375 0.703125 -1.28125 1.15625q-0.78125 0.453125 -1.734375 0.453125q-1.828125 0 -2.921875 -1.28125q-1.09375 -1.296875 -1.09375 -3.375q0 -2.171875 1.109375 -3.421875q1.109375 -1.265625 2.90625 -1.265625q1.859375 0 3.015625 1.578125l0 -1.359375l1.40625 0l0 8.75q0 1.90625 -1.125 2.90625q-1.109375 1.015625 -3.171875 1.015625zm0.203125 -4.78125q0.765625 0 1.515625 -0.40625q0.765625 -0.40625 1.171875 -1.0625l0 -3.9375q-0.40625 -0.65625 -1.171875 -1.046875q-0.765625 -0.40625 -1.515625 -0.40625q-1.3125 0 -2.109375 0.953125q-0.78125 0.953125 -0.78125 2.484375q0 1.546875 0.796875 2.484375q0.8125 0.9375 2.09375 0.9375zm10.958694 1.34375q-2.03125 0 -3.3125 -1.3125q-1.28125 -1.328125 -1.28125 -3.421875q0 -2.0 1.265625 -3.359375q1.28125 -1.359375 3.171875 -1.359375q1.9375 0 3.125 1.34375q1.203125 1.34375 1.203125 3.484375l0 0.359375l-7.296875 0q0.078125 1.375 1.0 2.25q0.921875 0.859375 2.25 0.859375q1.640625 0 2.78125 -1.140625l0.671875 0.921875q-1.375 1.375 -3.578125 1.375zm2.796875 -5.296875q0 -1.25 -0.828125 -2.125q-0.8125 -0.875 -2.140625 -0.875q-1.25 0 -2.078125 0.875q-0.828125 0.875 -0.875 2.125l5.921875 0zm9.722214 5.078125l0 -5.890625q0 -1.203125 -0.5625 -1.640625q-0.546875 -0.453125 -1.453125 -0.453125q-0.78125 0 -1.546875 0.421875q-0.75 0.421875 -1.125 0.984375l0 6.578125l-1.390625 0l0 -9.015625l1.390625 0l0 1.3125q0.578125 -0.671875 1.421875 -1.09375q0.859375 -0.4375 1.78125 -0.4375q2.875 0 2.875 2.90625l0 6.328125l-1.390625 0zm4.888977 -10.296875q-0.375 0 -0.65625 -0.265625q-0.28125 -0.28125 -0.28125 -0.671875q0 -0.390625 0.28125 -0.671875q0.28125 -0.28125 0.65625 -0.28125q0.390625 0 0.671875 0.28125q0.28125 0.28125 0.28125 0.671875q0 0.390625 -0.28125 0.671875q-0.28125 0.265625 -0.671875 0.265625zm-0.6875 10.296875l0 -9.015625l1.390625 0l0 9.015625l-1.390625 0zm8.260162 0.21875q-2.03125 0 -3.3125 -1.3125q-1.28125 -1.328125 -1.28125 -3.421875q0 -2.0 1.265625 -3.359375q1.28125 -1.359375 3.171875 -1.359375q1.9375 0 3.125 1.34375q1.203125 1.34375 1.203125 3.484375l0 0.359375l-7.296875 0q0.078125 1.375 1.0 2.25q0.921875 0.859375 2.25 0.859375q1.640625 0 2.78125 -1.140625l0.671875 0.921875q-1.375 1.375 -3.578125 1.375zm2.796875 -5.296875q0 -1.25 -0.828125 -2.125q-0.8125 -0.875 -2.140625 -0.875q-1.25 0 -2.078125 0.875q-0.828125 0.875 -0.875 2.125l5.921875 0zm3.6440735 5.078125l0 -9.015625l1.390625 0l0 1.453125q1.25 -1.640625 3.0 -1.640625l0 1.4375l-0.546875 -0.046875q-0.640625 0 -1.40625 0.453125q-0.765625 0.453125 -1.046875 0.984375l0 6.375l-1.390625 0zm10.078461 0.21875q-1.953125 0 -3.203125 -1.328125q-1.25 -1.328125 -1.25 -3.40625q0 -2.09375 1.25 -3.40625q1.25 -1.3125 3.203125 -1.3125q1.96875 0 3.21875 1.3125q1.25 1.3125 1.25 3.40625q0 2.078125 -1.25 3.40625q-1.25 1.328125 -3.21875 1.328125zm0 -1.25q1.3125 0 2.15625 -0.96875q0.84375 -0.984375 0.84375 -2.515625q0 -1.515625 -0.84375 -2.484375q-0.84375 -0.984375 -2.15625 -0.984375q-1.296875 0 -2.15625 0.96875q-0.84375 0.96875 -0.84375 2.5q0 1.546875 0.84375 2.515625q0.84375 0.96875 2.15625 0.96875zm18.07843 1.03125l0 -1.34375q-0.5 0.6875 -1.296875 1.125q-0.78125 0.4375 -1.734375 0.4375q-1.8125 0 -2.921875 -1.28125q-1.09375 -1.28125 -1.09375 -3.4375q0 -2.15625 1.109375 -3.4375q1.109375 -1.296875 2.90625 -1.296875q0.90625 0 1.703125 0.421875q0.796875 0.421875 1.328125 1.15625l0 -4.78125l1.40625 0l0 12.4375l-1.40625 0zm-2.703125 -1.03125q0.84375 0 1.59375 -0.40625q0.75 -0.40625 1.109375 -1.0l0 -4.09375q-0.359375 -0.59375 -1.109375 -1.015625q-0.75 -0.4375 -1.59375 -0.4375q-1.296875 0 -2.09375 0.953125q-0.796875 0.953125 -0.796875 2.53125q0 1.546875 0.78125 2.515625q0.796875 0.953125 2.109375 0.953125zm10.977325 1.25q-2.03125 0 -3.3125 -1.3125q-1.28125 -1.328125 -1.28125 -3.421875q0 -2.0 1.265625 -3.359375q1.28125 -1.359375 3.171875 -1.359375q1.9375 0 3.125 1.34375q1.203125 1.34375 1.203125 3.484375l0 0.359375l-7.296875 0q0.078125 1.375 1.0 2.25q0.921875 0.859375 2.25 0.859375q1.640625 0 2.78125 -1.140625l0.671875 0.921875q-1.375 1.375 -3.578125 1.375zm2.796875 -5.296875q0 -1.25 -0.828125 -2.125q-0.8125 -0.875 -2.140625 -0.875q-1.25 0 -2.078125 0.875q-0.828125 0.875 -0.875 2.125l5.921875 0zm14.394897 5.296875q-2.734375 0 -4.5625 -1.796875q-1.828125 -1.8125 -1.828125 -4.640625q0 -2.8125 1.828125 -4.625q1.828125 -1.8125 4.5625 -1.8125q2.96875 0 4.734375 2.46875l-1.3125 0.734375q-0.546875 -0.796875 -1.453125 -1.296875q-0.90625 -0.515625 -1.96875 -0.515625q-2.0625 0 -3.421875 1.4375q-1.359375 1.4375 -1.359375 3.609375q0 2.203125 1.34375 3.640625q1.359375 1.421875 3.4375 1.421875q1.0625 0 1.96875 -0.5q0.90625 -0.515625 1.453125 -1.3125l1.328125 0.734375q-1.8125 2.453125 -4.75 2.453125zm10.596008 0q-1.953125 0 -3.203125 -1.328125q-1.25 -1.328125 -1.25 -3.40625q0 -2.09375 1.25 -3.40625q1.25 -1.3125 3.203125 -1.3125q1.96875 0 3.21875 1.3125q1.25 1.3125 1.25 3.40625q0 2.078125 -1.25 3.40625q-1.25 1.328125 -3.21875 1.328125zm0 -1.25q1.3125 0 2.15625 -0.96875q0.84375 -0.984375 0.84375 -2.515625q0 -1.515625 -0.84375 -2.484375q-0.84375 -0.984375 -2.15625 -0.984375q-1.296875 0 -2.15625 0.96875q-0.84375 0.96875 -0.84375 2.5q0 1.546875 0.84375 2.515625q0.84375 0.96875 2.15625 0.96875zm12.827637 1.03125l0 -5.890625q0 -1.203125 -0.5625 -1.640625q-0.546875 -0.453125 -1.453125 -0.453125q-0.78125 0 -1.546875 0.421875q-0.75 0.421875 -1.125 0.984375l0 6.578125l-1.390625 0l0 -9.015625l1.390625 0l0 1.3125q0.578125 -0.671875 1.421875 -1.09375q0.859375 -0.4375 1.78125 -0.4375q2.875 0 2.875 2.90625l0 6.328125l-1.390625 0zm8.123352 0.21875q-1.953125 0 -3.203125 -1.328125q-1.25 -1.328125 -1.25 -3.40625q0 -2.09375 1.25 -3.40625q1.25 -1.3125 3.203125 -1.3125q1.96875 0 3.21875 1.3125q1.25 1.3125 1.25 3.40625q0 2.078125 -1.25 3.40625q-1.25 1.328125 -3.21875 1.328125zm0 -1.25q1.3125 0 2.15625 -0.96875q0.84375 -0.984375 0.84375 -2.515625q0 -1.515625 -0.84375 -2.484375q-0.84375 -0.984375 -2.15625 -0.984375q-1.296875 0 -2.15625 0.96875q-0.84375 0.96875 -0.84375 2.5q0 1.546875 0.84375 2.515625q0.84375 0.96875 2.15625 0.96875zm10.718231 1.25q-1.984375 0 -3.25 -1.34375q-1.25 -1.34375 -1.25 -3.390625q0 -2.03125 1.25 -3.375q1.265625 -1.34375 3.25 -1.34375q2.09375 0 3.296875 1.5625l-0.921875 0.859375q-0.859375 -1.171875 -2.296875 -1.171875q-1.390625 0 -2.265625 0.96875q-0.859375 0.953125 -0.859375 2.5q0 1.5625 0.859375 2.53125q0.859375 0.953125 2.265625 0.953125q1.40625 0 2.296875 -1.171875l0.921875 0.859375q-1.203125 1.5625 -3.296875 1.5625zm5.9536133 -10.515625q-0.375 0 -0.65625 -0.265625q-0.28125 -0.28125 -0.28125 -0.671875q0 -0.390625 0.28125 -0.671875q0.28125 -0.28125 0.65625 -0.28125q0.390625 0 0.671875 0.28125q0.28125 0.28125 0.28125 0.671875q0 0.390625 -0.28125 0.671875q-0.28125 0.265625 -0.671875 0.265625zm-0.6875 10.296875l0 -9.015625l1.390625 0l0 9.015625l-1.390625 0zm15.072662 0l0 -6.125q0 -1.859375 -1.671875 -1.859375q-0.703125 0 -1.375 0.421875q-0.65625 0.421875 -1.0 0.953125l0 6.609375l-1.40625 0l0 -6.125q0 -1.859375 -1.65625 -1.859375q-0.6875 0 -1.34375 0.4375q-0.65625 0.421875 -1.03125 0.96875l0 6.578125l-1.390625 0l0 -9.015625l1.390625 0l0 1.3125q0.3125 -0.546875 1.1875 -1.03125q0.890625 -0.5 1.71875 -0.5q1.046875 0 1.625 0.484375q0.59375 0.484375 0.8125 1.1875q0.453125 -0.71875 1.3125 -1.1875q0.859375 -0.484375 1.703125 -0.484375q2.515625 0 2.515625 2.71875l0 6.515625l-1.390625 0zm4.8867493 -10.296875q-0.375 0 -0.65625 -0.265625q-0.28125 -0.28125 -0.28125 -0.671875q0 -0.390625 0.28125 -0.671875q0.28125 -0.28125 0.65625 -0.28125q0.390625 0 0.671875 0.28125q0.28125 0.28125 0.28125 0.671875q0 0.390625 -0.28125 0.671875q-0.28125 0.265625 -0.671875 0.265625zm-0.6875 10.296875l0 -9.015625l1.390625 0l0 9.015625l-1.390625 0zm8.260162 0.21875q-2.03125 0 -3.3125 -1.3125q-1.28125 -1.328125 -1.28125 -3.421875q0 -2.0 1.265625 -3.359375q1.28125 -1.359375 3.171875 -1.359375q1.9375 0 3.125 1.34375q1.2030945 1.34375 1.2030945 3.484375l0 0.359375l-7.2968445 0q0.078125 1.375 1.0 2.25q0.921875 0.859375 2.25 0.859375q1.640625 0 2.78125 -1.140625l0.671875 0.921875q-1.375 1.375 -3.578125 1.375zm2.796875 -5.296875q0 -1.25 -0.828125 -2.125q-0.8125 -0.875 -2.140625 -0.875q-1.25 0 -2.078125 0.875q-0.828125 0.875 -0.875 2.125l5.921875 0zm9.7221985 5.078125l0 -5.890625q0 -1.203125 -0.5625 -1.640625q-0.546875 -0.453125 -1.453125 -0.453125q-0.78125 0 -1.546875 0.421875q-0.75 0.421875 -1.125 0.984375l0 6.578125l-1.390625 0l0 -9.015625l1.390625 0l0 1.3125q0.578125 -0.671875 1.421875 -1.09375q0.859375 -0.4375 1.78125 -0.4375q2.875 0 2.875 2.90625l0 6.328125l-1.390625 0zm6.467102 0.21875q-2.0 0 -2.0 -2.109375l0 -5.890625l-1.484375 0l0 -1.234375l1.484375 0l0 -2.453125l1.40625 0l0 2.453125l1.828125 0l0 1.234375l-1.828125 0l0 5.59375q0 0.515625 0.21875 0.84375q0.234375 0.3125 0.703125 0.3125q0.578125 0 0.9375 -0.375l0.421875 1.046875q-0.578125 0.578125 -1.6875 0.578125zm7.1411743 0q-1.953125 0 -3.203125 -1.328125q-1.25 -1.328125 -1.25 -3.40625q0 -2.09375 1.25 -3.40625q1.25 -1.3125 3.203125 -1.3125q1.96875 0 3.21875 1.3125q1.25 1.3125 1.25 3.40625q0 2.078125 -1.25 3.40625q-1.25 1.328125 -3.21875 1.328125zm0 -1.25q1.3125 0 2.15625 -0.96875q0.84375 -0.984375 0.84375 -2.515625q0 -1.515625 -0.84375 -2.484375q-0.84375 -0.984375 -2.15625 -0.984375q-1.296875 0 -2.15625 0.96875q-0.84375 0.96875 -0.84375 2.5q0 1.546875 0.84375 2.515625q0.84375 0.96875 2.15625 0.96875z" fill-rule="nonzero"/><path fill="#000000" fill-opacity="0.0" d="m402.7638 321.0735l0 -76.66141" fill-rule="evenodd"/><path stroke="#000000" stroke-width="1.0" stroke-linejoin="round" stroke-linecap="butt" d="m402.7638 321.0735l0 -70.66141" fill-rule="evenodd"/><path fill="#000000" stroke="#000000" stroke-width="1.0" stroke-linecap="butt" d="m404.4155 250.41208l-1.6517029 -4.538101l-1.6517334 4.538101z" fill-rule="evenodd"/><path fill="#000000" fill-opacity="0.0" d="m641.0945 476.39633l0 -53.5748" fill-rule="evenodd"/><path stroke="#000000" stroke-width="1.0" stroke-linejoin="round" stroke-linecap="butt" d="m641.0945 476.39633l0 -47.5748" fill-rule="evenodd"/><path fill="#000000" stroke="#000000" stroke-width="1.0" stroke-linecap="butt" d="m642.7462 428.82153l-1.6517334 -4.5381165l-1.6517334 4.5381165z" fill-rule="evenodd"/><path fill="#000000" fill-opacity="0.0" d="m743.63257 421.89502l0 53.5748" fill-rule="evenodd"/><path stroke="#000000" stroke-width="1.0" stroke-linejoin="round" stroke-linecap="butt" d="m743.63257 421.89502l0 47.5748" fill-rule="evenodd"/><path fill="#000000" stroke="#000000" stroke-width="1.0" stroke-linecap="butt" d="m741.98083 469.46982l1.6517334 4.538086l1.6517334 -4.538086z" fill-rule="evenodd"/></g></svg>